<?xml version="1.0" encoding="UTF-8" standalone="no"?>
<!-- Created with Inkscape (http://www.inkscape.org/) -->
<svg xmlns:dc="http://purl.org/dc/elements/1.1/" xmlns:cc="http://creativecommons.org/ns#" xmlns:rdf="http://www.w3.org/1999/02/22-rdf-syntax-ns#" xmlns:svg="http://www.w3.org/2000/svg" xmlns="http://www.w3.org/2000/svg" xmlns:sodipodi="http://sodipodi.sourceforge.net/DTD/sodipodi-0.dtd" xmlns:inkscape="http://www.inkscape.org/namespaces/inkscape" id="svg2" version="1.1" inkscape:version="0.91 r13725" xml:space="preserve" width="616.22369" height="585.44202" viewBox="0 0 616.22369 585.44202" sodipodi:docname="NRinj_orbitalelements.svg" inkscape:export-filename="/Users/pfeiffer/research/Papers/active/NRInjections/NRinj_orbitalelements.png" inkscape:export-xdpi="309.88474" inkscape:export-ydpi="309.88474"><metadata id="metadata8"><rdf:RDF><cc:Work rdf:about=""><dc:format>image/svg+xml</dc:format><dc:type rdf:resource="http://purl.org/dc/dcmitype/StillImage"/><dc:title/></cc:Work></rdf:RDF></metadata><defs id="defs6"><marker inkscape:stockid="Arrow1Lend" orient="auto" refY="0" refX="0" id="Arrow1Lend" style="overflow:visible" inkscape:isstock="true"><path id="path4605" d="M 0,0 5,-5 -12.5,0 5,5 0,0 Z" style="fill-rule:evenodd;stroke:#000000;stroke-width:1pt" transform="matrix(-0.8,0,0,-0.8,-10,0)" inkscape:connector-curvature="0"/></marker><clipPath clipPathUnits="userSpaceOnUse" id="clipPath28"><path d="m 4660,2060 c 0,386.6 -895.43,700 -2000,700 -1104.57,0 -2000,-313.4 -2000,-700 0,-386.6 895.43,-700 2000,-700 1104.57,0 2000,313.4 2000,700 z" id="path30" inkscape:connector-curvature="0"/></clipPath><clipPath clipPathUnits="userSpaceOnUse" id="clipPath40"><path d="M 4192.09,3345.57 C 3791.89,3822.51 2781.52,3633.58 1935.38,2923.58 1089.23,2213.57 727.711,1251.36 1127.91,774.426 c 400.2,-476.938 1410.57,-288.004 2256.72,421.994 846.14,710.01 1207.66,1672.22 807.46,2149.15 z" id="path42" inkscape:connector-curvature="0"/></clipPath><clipPath clipPathUnits="userSpaceOnUse" id="clipPath62"><path d="m 1660,2666.22 2000,-1212.44 0,2000 -2000,1212.44 0,-2000 z" id="path64" inkscape:connector-curvature="0"/></clipPath></defs><sodipodi:namedview pagecolor="#ffffff" bordercolor="#666666" borderopacity="1" objecttolerance="10" gridtolerance="10" guidetolerance="10" inkscape:pageopacity="0" inkscape:pageshadow="2" inkscape:window-width="946" inkscape:window-height="838" id="namedview4" showgrid="false" inkscape:zoom="1.33" inkscape:cx="171.63359" inkscape:cy="292.72101" inkscape:window-x="107" inkscape:window-y="23" inkscape:window-maximized="0" inkscape:current-layer="g212" fit-margin-top="0" fit-margin-left="0" fit-margin-right="0" fit-margin-bottom="0"/><g id="g10" inkscape:groupmode="layer" inkscape:label="ink_ext_XXXXXX" transform="matrix(1.25,0,0,-1.25,-2.8888434,591.69201)"><path inkscape:connector-curvature="0" id="path14" style="fill:#000000;fill-opacity:1;fill-rule:nonzero;stroke:none" d="m 66,207 -40,0 0,2 -6,-3 6,-3 0,2 40,0"/><g transform="scale(0.148148,0.0518519)" id="g16"><path inkscape:connector-curvature="0" id="path18" style="fill:none;stroke:#b2b2b2;stroke-width:13.5;stroke-linecap:butt;stroke-linejoin:miter;stroke-miterlimit:10;stroke-dasharray:none;stroke-opacity:1" d="m 3145.5,3972.86 c 0,745.58 -604.42,1350 -1350,1350 -745.58,0 -1350,-604.42 -1350,-1350"/></g><g transform="matrix(0.0695477,0.0583574,-0.0328937,0.0392012,0,0)" id="g20"><path inkscape:connector-curvature="0" id="path22" style="fill:none;stroke:#b2b2b2;stroke-width:22.02930069;stroke-linecap:butt;stroke-linejoin:miter;stroke-miterlimit:10;stroke-dasharray:none;stroke-opacity:1" d="M 5905.87,-257.486 C 5905.87,959.155 4919.58,1945.45 3702.94,1945.45 2486.29,1945.45 1500,959.16 1500,-257.481"/></g><g id="g24" transform="scale(0.1,0.1)"><g clip-path="url(#clipPath28)" id="g26"><g transform="matrix(0.695477,0.583574,-0.328937,0.392012,0,0)" id="g32"><path inkscape:connector-curvature="0" id="path34" style="fill:none;stroke:#e6e6e6;stroke-width:22.02930069;stroke-linecap:butt;stroke-linejoin:miter;stroke-miterlimit:10;stroke-dasharray:none;stroke-opacity:1" d="M 5905.87,-257.486 C 5905.87,959.155 4919.58,1945.45 3702.94,1945.45 2486.29,1945.45 1500,959.16 1500,-257.481"/></g></g></g><g id="g36" transform="scale(0.1,0.1)"><g clip-path="url(#clipPath40)" id="g38"><g transform="scale(1.48148,0.518519)" id="g44"><path inkscape:connector-curvature="0" id="path46" style="fill:none;stroke:#e6e6e6;stroke-width:13.5;stroke-linecap:butt;stroke-linejoin:miter;stroke-miterlimit:10;stroke-dasharray:none;stroke-opacity:1" d="m 3145.5,3972.86 c 0,745.58 -604.42,1350 -1350,1350 -745.58,0 -1350,-604.42 -1350,-1350"/></g></g></g><path style="fill:#999999;fill-rule:evenodd;stroke:#000000;stroke-width:0.29613131;stroke-linecap:butt;stroke-linejoin:miter;stroke-miterlimit:4;stroke-dasharray:0.02961313, 0.02961313;stroke-dashoffset:0;stroke-opacity:0.31372549" d="m 261.4046,238.4511 -9.91266,93.51619" id="path3796" inkscape:connector-curvature="0"/><g transform="matrix(0.0866257,0.0349527,0.00710278,0.0713188,0,0)" id="g48"><path inkscape:connector-curvature="0" id="path50" style="fill:none;stroke:#e6e6e6;stroke-width:19.4993;stroke-linecap:butt;stroke-linejoin:miter;stroke-miterlimit:10;stroke-dasharray:none;stroke-opacity:1" d="m 2952.49,1441.45 -1091.96,0"/></g><g transform="matrix(0.0939972,0.037927,0.00616575,0.0619101,0,0)" id="g52"><path inkscape:connector-curvature="0" id="path54" style="fill:none;stroke:#e6e6e6;stroke-width:17.9701004;stroke-linecap:butt;stroke-linejoin:miter;stroke-miterlimit:10;stroke-dasharray:none;stroke-opacity:1" d="m 2972.53,1660.51 c 0,347.37 -281.59,628.96 -628.95,628.96 -347.36,0 -628.96,-281.59 -628.95,-628.96 -0.01,-347.35 281.59,-628.95 628.95,-628.95 347.36,0 628.95,281.59 628.95,628.95"/></g><path inkscape:connector-curvature="0" id="path56" style="fill:#e6e6e6;fill-opacity:1;fill-rule:nonzero;stroke:none" d="m 171.408,167.833 1.532,1.286 c -0.71,0.846 -1.971,0.956 -2.817,0.246 -0.846,-0.71 -0.957,-1.971 -0.247,-2.817 0.71,-0.846 1.972,-0.957 2.818,-0.247 0.846,0.71 0.956,1.972 0.246,2.818"/><g transform="matrix(0.01062724,0.07356851,-0.07496106,0.01344002,402.6656,-34.36044)" id="g106"><path inkscape:connector-curvature="0" id="path108" style="fill:none;stroke:#b2b2b2;stroke-width:19.9239006;stroke-linecap:butt;stroke-linejoin:miter;stroke-miterlimit:10;stroke-dasharray:none;stroke-opacity:1" d="m 3409.44,2203.46 39.85,-0.01 -79.7,119.55 -79.7,-119.55 39.86,0 -3.04,-69.46 c -10.14,-115.92 -53.0129,-152.0413 -144.9265,-231.5696 l 36.6272,-54.5493 C 3312.9024,1937.0212 3394.95,1999.53 3406.1,2127.05 Z" sodipodi:nodetypes="cccccccccc"/></g><g transform="matrix(-0.00782977,0.0624295,-0.0842012,-0.0455395,0,0)" id="g110"><path inkscape:connector-curvature="0" id="path112" style="fill:none;stroke:#b2b2b2;stroke-width:20.04159927;stroke-linecap:butt;stroke-linejoin:miter;stroke-miterlimit:10;stroke-dasharray:none;stroke-opacity:1" d="m 932.08,-3245.77 501.15,0"/></g><path inkscape:connector-curvature="0" id="path114" style="fill:#b2b2b2;fill-opacity:1;fill-rule:nonzero;stroke:none" d="m 261.527,241.666 c -0.466,-0.252 -0.809,-0.737 -0.765,-1.082 0.043,-0.346 0.456,-0.421 0.922,-0.17 0.466,0.252 0.809,0.737 0.765,1.082 -0.043,0.345 -0.456,0.422 -0.922,0.17"/><g transform="matrix(0.0144095,0.0729987,-0.0844108,-0.0281811,0,0)" id="g138"><path inkscape:connector-curvature="0" id="path140" style="fill:none;stroke:#b2b2b2;stroke-width:19.79179955;stroke-linecap:butt;stroke-linejoin:miter;stroke-miterlimit:10;stroke-dasharray:none;stroke-opacity:1" d="m 2522.448,-2735.5821 75.5799,23.5886 -127.1962,46.5933 -81.5404,-90.0844 65.9791,16.1253 32.9899,-45.4014 c 25.736,-342.9408 -742.9558,-814.1008 -1234.0578,-583.3881 l -58.2259,-72.8119 c 487.1528,-172.9447 1344.8302,206.0715 1344.7784,685.5 z" sodipodi:nodetypes="cccccccccc"/></g><g transform="matrix(0.0939972,0.037927,0.00616575,0.0619101,0,0)" id="g142"><path inkscape:connector-curvature="0" id="path144" style="fill:none;stroke:#b2b2b2;stroke-width:17.9701004;stroke-linecap:butt;stroke-linejoin:miter;stroke-miterlimit:10;stroke-dasharray:none;stroke-opacity:1" d="m 2972.53,1660.51 c 0,347.37 -281.59,628.96 -628.95,628.96 -347.36,0 -628.96,-281.59 -628.95,-628.96 -0.01,-347.35 281.59,-628.95 628.95,-628.95 347.36,0 628.95,281.59 628.95,628.95"/></g><path inkscape:connector-curvature="0" id="path146" style="fill:#b2b2b2;fill-opacity:1;fill-rule:nonzero;stroke:none" d="m 289.16014,221.15239 1.532,1.285 c -0.71,0.846 -1.971,0.957 -2.817,0.247 -0.847,-0.71 -0.957,-1.972 -0.247,-2.818 0.71,-0.846 1.972,-0.956 2.818,-0.246 0.846,0.71 0.956,1.971 0.246,2.817"/><path inkscape:connector-curvature="0" id="path148" style="fill:#ffffff;fill-opacity:1;fill-rule:nonzero;stroke:none" d="m 264.374,239.215 c -1.065,1.269 -2.957,1.434 -4.226,0.369 -1.269,-1.064 -1.435,-2.957 -0.37,-4.226 1.065,-1.269 2.957,-1.435 4.226,-0.37 1.269,1.065 1.435,2.958 0.37,4.227"/><path inkscape:connector-curvature="0" id="path150" style="fill:none;stroke:#b2b2b2;stroke-width:2;stroke-linecap:butt;stroke-linejoin:miter;stroke-miterlimit:10;stroke-dasharray:none;stroke-opacity:1" d="m 264.374,239.215 c -1.065,1.269 -2.957,1.434 -4.226,0.369 -1.269,-1.064 -1.435,-2.957 -0.37,-4.226 1.065,-1.269 2.957,-1.435 4.226,-0.37 1.269,1.065 1.435,2.958 0.37,4.227 z"/><path inkscape:connector-curvature="0" id="path152" style="fill:none;stroke:#808080;stroke-width:0.40000001;stroke-linecap:butt;stroke-linejoin:miter;stroke-miterlimit:10;stroke-dasharray:none;stroke-opacity:1" d="m 268.138,240.786 c -0.511,0.885 -1.21,1.648 -2.047,2.234 -0.837,0.587 -1.793,0.983 -2.799,1.16"/><path inkscape:connector-curvature="0" id="path154" style="fill:none;stroke:#808080;stroke-width:0.40000001;stroke-linecap:butt;stroke-linejoin:miter;stroke-miterlimit:10;stroke-dasharray:none;stroke-opacity:1" d="m 258.576,243.348 c -0.885,-0.51 -1.648,-1.21 -2.234,-2.047 -0.586,-0.837 -0.982,-1.793 -1.16,-2.799"/><path inkscape:connector-curvature="0" id="path156" style="fill:none;stroke:#808080;stroke-width:0.40000001;stroke-linecap:butt;stroke-linejoin:miter;stroke-miterlimit:10;stroke-dasharray:none;stroke-opacity:1" d="m 256.014,233.786 c 0.511,-0.885 1.21,-1.648 2.047,-2.234 0.837,-0.586 1.793,-0.982 2.8,-1.159"/><path inkscape:connector-curvature="0" id="path158" style="fill:none;stroke:#808080;stroke-width:0.40000001;stroke-linecap:butt;stroke-linejoin:miter;stroke-miterlimit:10;stroke-dasharray:none;stroke-opacity:1" d="m 265.576,231.224 c 0.885,0.511 1.648,1.21 2.234,2.047 0.586,0.838 0.983,1.793 1.16,2.8"/><path inkscape:connector-curvature="0" id="path160" style="fill:none;stroke:#808080;stroke-width:0.40000001;stroke-linecap:butt;stroke-linejoin:miter;stroke-miterlimit:10;stroke-dasharray:none;stroke-opacity:1" d="m 269.39,244.106 c -0.476,0.511 -1.006,0.971 -1.578,1.372 -0.573,0.401 -1.185,0.741 -1.828,1.013"/><path inkscape:connector-curvature="0" id="path162" style="fill:none;stroke:#808080;stroke-width:0.40000001;stroke-linecap:butt;stroke-linejoin:miter;stroke-miterlimit:10;stroke-dasharray:none;stroke-opacity:1" d="m 255.256,244.6 c -0.511,-0.476 -0.971,-1.005 -1.371,-1.578 -0.401,-0.572 -0.741,-1.185 -1.014,-1.828"/><path inkscape:connector-curvature="0" id="path164" style="fill:none;stroke:#808080;stroke-width:0.40000001;stroke-linecap:butt;stroke-linejoin:miter;stroke-miterlimit:10;stroke-dasharray:none;stroke-opacity:1" d="m 254.763,230.466 c 0.476,-0.511 1.005,-0.971 1.577,-1.371 0.573,-0.401 1.186,-0.741 1.829,-1.014"/><path inkscape:connector-curvature="0" id="path166" style="fill:none;stroke:#808080;stroke-width:0.40000001;stroke-linecap:butt;stroke-linejoin:miter;stroke-miterlimit:10;stroke-dasharray:none;stroke-opacity:1" d="m 268.896,229.973 c 0.511,0.476 0.971,1.005 1.372,1.577 0.4,0.573 0.74,1.186 1.013,1.829"/><path inkscape:connector-curvature="0" id="path168" style="fill:none;stroke:#808080;stroke-width:0.40000001;stroke-linecap:butt;stroke-linejoin:miter;stroke-miterlimit:10;stroke-dasharray:none;stroke-opacity:1" d="m 270.257,247.389 c -0.235,0.19 -0.477,0.373 -0.724,0.546 -0.248,0.174 -0.502,0.339 -0.762,0.495"/><path inkscape:connector-curvature="0" id="path170" style="fill:none;stroke:#808080;stroke-width:0.40000001;stroke-linecap:butt;stroke-linejoin:miter;stroke-miterlimit:10;stroke-dasharray:none;stroke-opacity:1" d="m 251.973,245.468 c -0.19,-0.235 -0.373,-0.477 -0.546,-0.725 -0.173,-0.248 -0.338,-0.502 -0.494,-0.761"/><path inkscape:connector-curvature="0" id="path172" style="fill:none;stroke:#808080;stroke-width:0.40000001;stroke-linecap:butt;stroke-linejoin:miter;stroke-miterlimit:10;stroke-dasharray:none;stroke-opacity:1" d="m 253.895,227.184 c 0.235,-0.191 0.477,-0.373 0.725,-0.546 0.247,-0.174 0.501,-0.339 0.76,-0.495"/><path inkscape:connector-curvature="0" id="path174" style="fill:none;stroke:#808080;stroke-width:0.40000001;stroke-linecap:butt;stroke-linejoin:miter;stroke-miterlimit:10;stroke-dasharray:none;stroke-opacity:1" d="m 272.179,229.105 c 0.19,0.235 0.373,0.477 0.546,0.725 0.173,0.247 0.339,0.502 0.494,0.761"/><path inkscape:connector-curvature="0" id="path176" style="fill:#b2b2b2;fill-opacity:1;fill-rule:nonzero;stroke:none" d="m 366.866,145.553 -200,121.244 -1.732,-0.35 200,-121.244"/><g transform="scale(0.148148,0.0518519)" id="g178"><path inkscape:connector-curvature="0" id="path180" style="fill:none;stroke:#000000;stroke-width:13.5;stroke-linecap:butt;stroke-linejoin:miter;stroke-miterlimit:10;stroke-dasharray:none;stroke-opacity:1" d="m 445.5,3972.86 c 0,-745.58 604.42,-1350 1350,-1350 745.58,0 1350,604.42 1350,1350"/></g><g transform="matrix(0.0695477,0.0583574,-0.0328937,0.0392012,0,0)" id="g182"><path inkscape:connector-curvature="0" id="path184" style="fill:none;stroke:#000000;stroke-width:22.02930069;stroke-linecap:butt;stroke-linejoin:miter;stroke-miterlimit:10;stroke-dasharray:none;stroke-opacity:1" d="m 1500,-257.481 c 0,-1216.639 986.29,-2202.939 2202.93,-2202.939 1216.65,0 2202.94,986.29 2202.94,2202.934"/></g><path inkscape:connector-curvature="0" id="path186" style="fill:none;stroke:#000000;stroke-width:2;stroke-linecap:butt;stroke-linejoin:miter;stroke-miterlimit:10;stroke-dasharray:none;stroke-opacity:1" d="M 466,206 C 466,316.457 376.457,406 266,406 155.543,406 66,316.457 66,206 66,95.5434 155.543,6 266,6 376.457,6 466,95.5434 466,206"/><path inkscape:connector-curvature="0" id="path188" style="fill:#000000;fill-opacity:1;fill-rule:nonzero;stroke:none" d="m 366.866,145.553 40,-24.248 1.732,0.35 5.402,-5.375 -10.598,4.325 1.732,0.35 -40,24.248"/><path inkscape:connector-curvature="0" id="path190" style="fill:#ffffff;fill-opacity:1;fill-rule:nonzero;stroke:none" d="m 354,121.378 12,10 -12,6 -0.176,-3.823 C 326.395,128.977 296.389,126.6 266,126.6 153.334,126.6 62,158.567 62,198 l 0,-8 c 0,-39.433 91.334,-71.4 204,-71.4 30.389,0 60.395,2.377 87.824,6.955"/><g transform="scale(0.148148,0.0518519)" id="g192"><path inkscape:connector-curvature="0" id="path194" style="fill:none;stroke:#000000;stroke-width:13.5;stroke-linecap:butt;stroke-linejoin:miter;stroke-miterlimit:10;stroke-dasharray:none;stroke-opacity:1" d="m 2389.5,2340.86 81,192.86 -81,115.72 -1.19,-73.73 c -185.14,-88.3 -387.68,-134.14 -592.81,-134.14 -760.5,0 -1377,616.51 -1377,1377 l 0,-154.28 c 0,-760.49 616.5,-1377 1377,-1377 205.13,0 407.67,45.83 592.81,134.14 l 1.19,-80.57 z"/></g><path inkscape:connector-curvature="0" id="path196" style="fill:#000000;fill-opacity:1;fill-rule:nonzero;stroke:none" d="m 267,393.35 0,56.205 2,0 -3,5.62 -3,-5.62 2,0 0,-56.205"/><path inkscape:connector-curvature="0" id="path198" style="fill:#000000;fill-opacity:1;fill-rule:nonzero;stroke:none" d="m 160.577,333.195 -31.857,37.965 1.532,1.285 -5.484,1.869 0.887,-5.725 1.533,1.285 31.857,-37.965"/><path inkscape:connector-curvature="0" id="path200" style="fill:#ffffff;fill-opacity:1;fill-rule:nonzero;stroke:none" d="m 259.207,419.145 c -35.579,-7.427 -70.4,-22.709 -101.614,-44.597 l -2.124,2.532 -8.01,-15.347 16.505,5.222 -2.124,2.531 -0.664,-0.509 c 30.183,21.164 63.852,35.941 98.255,43.121"/><g transform="matrix(0.0595556,0.049973,-0.0412781,0.0491933,0,0)" id="g202"><path inkscape:connector-curvature="0" id="path204" style="fill:none;stroke:#000000;stroke-width:25.72540092;stroke-linecap:butt;stroke-linejoin:miter;stroke-miterlimit:10;stroke-dasharray:none;stroke-opacity:1" d="m 6019.54,2405.4 c -411.97,267.55 -881.43,433.78 -1369.96,485.13 l 0,51.46 -205.81,-102.91 205.81,-102.9 0,51.45 -10.76,0.57 c 472.38,-49.65 926.32,-210.4 1324.68,-469.1 l 56.04,86.3 z"/></g><g id="g206"><text id="text208" style="font-variant:normal;font-weight:normal;font-size:20px;line-height:125%;font-family:sans-serif;-inkscape-font-specification:'sans-serif, Italic';writing-mode:lr;fill:#000000;fill-opacity:1;fill-rule:nonzero;stroke:none;font-style:italic;font-stretch:normal;text-anchor:start;text-align:start;" transform="matrix(1,0,0,-1,166,106)" sodipodi:linespacing="125%"><tspan id="tspan210" y="0" x="0" style="font-style:italic;font-variant:normal;font-weight:normal;font-stretch:normal;font-size:20px;line-height:125%;font-family:sans-serif;-inkscape-font-specification:'sans-serif, Italic';text-align:start;writing-mode:lr;text-anchor:start;">Ω</tspan></text>
</g><g id="g212" transform="translate(24.04908,19.141104)"><text id="text214" style="font-style:italic;font-variant:normal;font-weight:normal;font-stretch:normal;font-size:20px;line-height:125%;font-family:sans-serif;-inkscape-font-specification:'sans-serif, Italic';text-align:start;writing-mode:lr-tb;text-anchor:start;fill:#666666;fill-opacity:1;fill-rule:nonzero;stroke:none" transform="scale(1,-1)" sodipodi:linespacing="125%" x="288.88342" y="-232.80981"><tspan sodipodi:role="line" id="tspan3473" x="288.88342" y="-232.80981" style="fill:#666666">Φ</tspan></text>
</g><g id="g236"><text id="text238" style="font-style:italic;font-variant:normal;font-weight:normal;font-stretch:normal;font-size:19.99999428px;line-height:125%;font-family:sans-serif;-inkscape-font-specification:'sans-serif, Italic';text-align:start;writing-mode:lr-tb;text-anchor:start;fill:#808080;fill-opacity:1;fill-rule:nonzero;stroke:none" transform="matrix(0.927184,0.374607,0.374607,-0.927184,274,214)" sodipodi:linespacing="125%"><tspan id="tspan240" y="0" x="0" style="font-style:italic;font-variant:normal;font-weight:normal;font-stretch:normal;font-size:19.99999428px;line-height:125%;font-family:sans-serif;-inkscape-font-specification:'sans-serif, Italic';text-align:start;writing-mode:lr-tb;text-anchor:start">r</tspan></text>
<text id="text242" style="font-variant:normal;font-weight:normal;font-size:10.00000286px;line-height:125%;font-family:Times;-inkscape-font-specification:Times-Roman;writing-mode:lr-tb;fill:#808080;fill-opacity:1;fill-rule:nonzero;stroke:none" transform="matrix(0.927184,0.374607,0.374607,-0.927184,280.54958,215.56767)" sodipodi:linespacing="125%"><tspan id="tspan244" y="0" x="0" style="font-style:italic;font-variant:normal;font-weight:normal;font-stretch:normal;font-size:9.99999714px;line-height:125%;font-family:sans-serif;-inkscape-font-specification:'sans-serif, Italic';text-align:start;writing-mode:lr-tb;text-anchor:start">p</tspan></text>
</g><path inkscape:connector-curvature="0" id="path246" style="fill:none;stroke:#808080;stroke-width:1.60000002;stroke-linecap:butt;stroke-linejoin:miter;stroke-miterlimit:10;stroke-dasharray:none;stroke-opacity:1" d="m 420.243,101.757 c 1.171,1.172 3.071,1.172 4.242,0 1.172,-1.171 1.172,-3.0711 0,-4.2422 -1.171,-1.1714 -3.071,-1.1714 -4.242,0 -1.172,1.1711 -1.172,3.0712 0,4.2422 l 0,0 c 2.343,2.343 2.343,6.143 0,8.486 -2.343,2.343 -6.143,2.343 -8.486,0 -2.343,-2.343 -2.343,-6.143 0,-8.486 l 0,0 c 1.172,-1.171 1.172,-3.0711 0,-4.2422 -1.171,-1.1714 -3.071,-1.1714 -4.242,0 -1.172,1.1711 -1.172,3.0712 0,4.2422 1.171,1.172 3.071,1.172 4.242,0"/><text xml:space="preserve" style="font-style:italic;font-variant:normal;font-weight:500;font-stretch:normal;font-size:32px;line-height:125%;font-family:Times;-inkscape-font-specification:'Times Medium Italic';letter-spacing:0px;word-spacing:0px;fill:#000000;fill-opacity:1;stroke:none;stroke-width:1px;stroke-linecap:butt;stroke-linejoin:miter;stroke-opacity:1" x="116.8" y="-381.33334" id="text4871" sodipodi:linespacing="125%" transform="scale(1,-1)"><tspan sodipodi:role="line" id="tspan4873" x="116.8" y="-381.33334"/></text>
<text xml:space="preserve" style="font-style:italic;font-variant:normal;font-weight:normal;font-stretch:normal;font-size:32px;line-height:125%;font-family:sans-serif;-inkscape-font-specification:'sans-serif, Italic';text-align:start;letter-spacing:0px;word-spacing:0px;writing-mode:lr-tb;text-anchor:start;fill:#000000;fill-opacity:1;stroke:none;stroke-width:1px;stroke-linecap:butt;stroke-linejoin:miter;stroke-opacity:1" x="113.33332" y="-377.86667" id="text4875" sodipodi:linespacing="125%" transform="scale(1,-1)"><tspan sodipodi:role="line" id="tspan4877" x="113.33332" y="-377.86667" style="font-style:italic;font-variant:normal;font-weight:normal;font-stretch:normal;font-size:20px;line-height:1.25;font-family:sans-serif;-inkscape-font-specification:'sans-serif, Italic';text-align:start;writing-mode:lr-tb;text-anchor:start">z</tspan></text>
<text xml:space="preserve" style="font-style:italic;font-variant:normal;font-weight:normal;font-stretch:normal;font-size:20px;line-height:125%;font-family:sans-serif;-inkscape-font-specification:'sans-serif, Italic';text-align:start;letter-spacing:0px;word-spacing:0px;writing-mode:lr-tb;text-anchor:start;fill:#000000;fill-opacity:1;stroke:none;stroke-width:1px;stroke-linecap:butt;stroke-linejoin:miter;stroke-opacity:1" x="259.5705" y="-458.81259" id="text4875-1" sodipodi:linespacing="125%" transform="scale(1,-1)"><tspan sodipodi:role="line" id="tspan4897" x="259.5705" y="-458.81259">Z</tspan></text>
<text xml:space="preserve" style="font-style:italic;font-variant:normal;font-weight:normal;font-stretch:normal;font-size:20px;line-height:125%;font-family:sans-serif;-inkscape-font-specification:'sans-serif, Italic';text-align:start;letter-spacing:0px;word-spacing:0px;writing-mode:lr-tb;text-anchor:start;fill:#000000;fill-opacity:1;stroke:none;stroke-width:1px;stroke-linecap:butt;stroke-linejoin:miter;stroke-opacity:1" x="233.93616" y="-359.08737" id="text4875-6" sodipodi:linespacing="125%" transform="scale(1,-1)"><tspan sodipodi:role="line" id="tspan4951" x="233.93616" y="-359.08737">x</tspan></text>
<text xml:space="preserve" style="font-style:italic;font-variant:normal;font-weight:normal;font-stretch:normal;font-size:20px;line-height:125%;font-family:sans-serif;-inkscape-font-specification:'sans-serif, Italic';text-align:start;letter-spacing:0px;word-spacing:0px;writing-mode:lr-tb;text-anchor:start;fill:#000000;fill-opacity:1;stroke:none;stroke-width:1px;stroke-linecap:butt;stroke-linejoin:miter;stroke-opacity:1" x="2.9165435" y="-198.32948" id="text4875-1-1" sodipodi:linespacing="125%" transform="scale(1,-1)"><tspan sodipodi:role="line" id="tspan4971" x="2.9165435" y="-198.32948">X</tspan></text>
<text xml:space="preserve" style="font-style:normal;font-weight:normal;font-size:14px;line-height:125%;font-family:sans-serif;letter-spacing:0px;word-spacing:0px;fill:#000000;fill-opacity:1;stroke:none;stroke-width:1px;stroke-linecap:butt;stroke-linejoin:miter;stroke-opacity:1" x="256.2522" y="-128.00566" id="text4973" sodipodi:linespacing="125%" transform="matrix(0.99882854,0.04838963,0.04838963,-0.99882854,0,0)"><tspan sodipodi:role="line" id="tspan4975" x="256.2522" y="-128.00566">plane of sky</tspan></text>
<text xml:space="preserve" style="font-style:normal;font-variant:normal;font-weight:normal;font-stretch:normal;font-size:14px;line-height:125%;font-family:sans-serif;-inkscape-font-specification:'sans-serif, Normal';text-align:start;letter-spacing:0px;word-spacing:0px;writing-mode:lr-tb;text-anchor:start;fill:#000000;fill-opacity:1;stroke:none;stroke-width:1px;stroke-linecap:butt;stroke-linejoin:miter;stroke-opacity:1" x="233.95393" y="42.408829" id="text4973-8" sodipodi:linespacing="125%" transform="matrix(0.90420759,0.42709325,0.42709325,-0.90420759,0,0)"><tspan sodipodi:role="line" id="tspan4995" x="233.95393" y="42.408829">orbital plane</tspan></text>
<path style="fill:#999999;fill-rule:evenodd;stroke:#000000;stroke-width:1.12949336;stroke-linecap:butt;stroke-linejoin:miter;stroke-miterlimit:4;stroke-dasharray:0.11294934, 0.11294934;stroke-dashoffset:0;stroke-opacity:0.31372549" d="M 159.86566,332.74452 266.08983,205.7888" id="path3796-2" inkscape:connector-curvature="0"/><text xml:space="preserve" style="font-style:normal;font-weight:normal;font-size:18px;line-height:125%;font-family:sans-serif;letter-spacing:0px;word-spacing:0px;fill:#000000;fill-opacity:1;stroke:none;stroke-width:1px;stroke-linecap:butt;stroke-linejoin:miter;stroke-opacity:1" x="-42.755592" y="-347.93332" id="text5014" sodipodi:linespacing="125%" transform="scale(1,-1)"><tspan sodipodi:role="line" id="tspan5016" x="-42.755592" y="-347.93332"/></text>
<text xml:space="preserve" style="font-style:italic;font-variant:normal;font-weight:normal;font-stretch:normal;font-size:20px;line-height:1.25;font-family:sans-serif;-inkscape-font-specification:'sans-serif, Italic';text-align:start;letter-spacing:0px;word-spacing:0px;writing-mode:lr;text-anchor:start;fill:#000000;fill-opacity:1;stroke:none;stroke-width:1px;stroke-linecap:butt;stroke-linejoin:miter;stroke-opacity:1;" x="188.28157" y="-402.47925" id="text4875-62" sodipodi:linespacing="1.25" transform="scale(1,-1)"><tspan sodipodi:role="line" id="tspan5044" style="font-style:italic;font-variant:normal;font-weight:normal;font-stretch:normal;font-size:20px;line-height:1.25;font-family:sans-serif;-inkscape-font-specification:'sans-serif, Italic';text-align:start;writing-mode:lr;text-anchor:start;" x="188.28157" y="-402.47925">ι</tspan></text>
<path inkscape:connector-curvature="0" id="path198-9" style="fill:#000000;fill-opacity:1;fill-rule:nonzero;stroke:none" d="m 252.29837,331.39027 -2.06543,24.9987 1.90254,0.0353 -3.06059,2.44698 -2.64838,-2.55303 1.90331,0.035 2.06544,-24.9987"/><text xml:space="preserve" style="font-style:normal;font-weight:normal;font-size:32px;line-height:125%;font-family:Sans;letter-spacing:0px;word-spacing:0px;fill:#000000;fill-opacity:1;stroke:none;stroke-width:1px;stroke-linecap:butt;stroke-linejoin:miter;stroke-opacity:1" x="313.32208" y="-301.86304" id="text3475" sodipodi:linespacing="125%" transform="scale(1,-1)"><tspan sodipodi:role="line" id="tspan3477" x="313.32208" y="-301.86304"/></text>
<text xml:space="preserve" style="font-style:normal;font-weight:normal;font-size:20.98945427px;line-height:125%;font-family:Sans;letter-spacing:0px;word-spacing:0px;fill:#000000;fill-opacity:1;stroke:none;stroke-width:1px;stroke-linecap:butt;stroke-linejoin:miter;stroke-opacity:1" x="266.62936" y="-255.40971" id="text3479" sodipodi:linespacing="125%" transform="scale(1.0700512,-0.93453474)"><tspan sodipodi:role="line" id="tspan3481" x="266.62936" y="-255.40971" style="fill:#666666">δ</tspan></text>
</g></svg>