/* XPM */
static char *unicorn[] = {
/* columns rows colors chars-per-pixel */
"70 64 250 2",
"   c #000000",
".  c #010101",
"X  c #020202",
"o  c #030303",
"O  c #040404",
"+  c #050505",
"@  c #060606",
"#  c #070707",
"$  c #080808",
"%  c #090909",
"&  c #0A0A0A",
"*  c #0B0B0B",
"=  c #0C0C0C",
"-  c #0D0D0D",
";  c #0E0E0E",
":  c #0F0F0F",
">  c #101010",
",  c #111111",
"<  c #121212",
"1  c #131313",
"2  c #141414",
"3  c #151515",
"4  c #161616",
"5  c #171717",
"6  c #181818",
"7  c #191919",
"8  c #1A1A1A",
"9  c #1B1B1B",
"0  c #1C1C1C",
"q  c #1D1D1D",
"w  c #1E1E1E",
"e  c #1F1F1F",
"r  c #202020",
"t  c #212121",
"y  c #222222",
"u  c #232323",
"i  c #242424",
"p  c #252525",
"a  c #262626",
"s  c #272727",
"d  c #282828",
"f  c #292929",
"g  c #2A2A2A",
"h  c #2B2B2B",
"j  c #2C2C2C",
"k  c #2D2D2D",
"l  c #2E2E2E",
"z  c #2F2F2F",
"x  c #303030",
"c  c #313131",
"v  c #323232",
"b  c #333333",
"n  c #353535",
"m  c #363636",
"M  c #373737",
"N  c #383838",
"B  c #393939",
"V  c #3A3A3A",
"C  c #3B3B3B",
"Z  c #3C3C3C",
"A  c #3D3D3D",
"S  c #3E3E3E",
"D  c #3F3F3F",
"F  c #404040",
"G  c #414141",
"H  c #424242",
"J  c #434343",
"K  c #444444",
"L  c #454545",
"P  c #464646",
"I  c #474747",
"U  c #484848",
"Y  c #494949",
"T  c #4A4A4A",
"R  c #4B4B4B",
"E  c #4C4C4C",
"W  c #4D4D4D",
"Q  c #4E4E4E",
"!  c #4F4F4F",
"~  c #505050",
"^  c #515151",
"/  c #525252",
"(  c #535353",
")  c #545454",
"_  c #555555",
"`  c #565656",
"'  c #575757",
"]  c #585858",
"[  c #595959",
"{  c #5A5A5A",
"}  c #5B5B5B",
"|  c #5C5C5C",
" . c #5D5D5D",
".. c #5E5E5E",
"X. c #5F5F5F",
"o. c #606060",
"O. c #616161",
"+. c #626262",
"@. c #636363",
"#. c #646464",
"$. c #656565",
"%. c #666666",
"&. c #676767",
"*. c #686868",
"=. c #696969",
"-. c #6A6A6A",
";. c #6B6B6B",
":. c #6C6C6C",
">. c #6D6D6D",
",. c #6E6E6E",
"<. c #6F6F6F",
"1. c #707070",
"2. c #717171",
"3. c #727272",
"4. c #737373",
"5. c #747474",
"6. c #757575",
"7. c #767676",
"8. c #787878",
"9. c #797979",
"0. c #7A7A7A",
"q. c #7B7B7B",
"w. c #7C7C7C",
"e. c #7D7D7D",
"r. c #7E7E7E",
"t. c #7F7F7F",
"y. c #808080",
"u. c #818181",
"i. c #828282",
"p. c #838383",
"a. c #848484",
"s. c #858585",
"d. c #868686",
"f. c #878787",
"g. c #888888",
"h. c #898989",
"j. c #8A8A8A",
"k. c #8B8B8B",
"l. c #8C8C8C",
"z. c #8D8D8D",
"x. c #8E8E8E",
"c. c #8F8F8F",
"v. c #909090",
"b. c #919191",
"n. c #929292",
"m. c #939393",
"M. c #949494",
"N. c #959595",
"B. c #969696",
"V. c #979797",
"C. c #989898",
"Z. c #999999",
"A. c #9A9A9A",
"S. c #9B9B9B",
"D. c #9C9C9C",
"F. c #9D9D9D",
"G. c #9E9E9E",
"H. c #9F9F9F",
"J. c #A0A0A0",
"K. c #A1A1A1",
"L. c #A2A2A2",
"P. c #A3A3A3",
"I. c #A4A4A4",
"U. c #A6A6A6",
"Y. c #A7A7A7",
"T. c #A8A8A8",
"R. c #AAAAAA",
"E. c #ABABAB",
"W. c #ACACAC",
"Q. c #ADADAD",
"!. c #AEAEAE",
"~. c #AFAFAF",
"^. c #B0B0B0",
"/. c #B1B1B1",
"(. c #B2B2B2",
"). c #B3B3B3",
"_. c #B4B4B4",
"`. c #B5B5B5",
"'. c #B6B6B6",
"]. c #B7B7B7",
"[. c #B8B8B8",
"{. c #B9B9B9",
"}. c #BABABA",
"|. c #BBBBBB",
" X c #BCBCBC",
".X c #BDBDBD",
"XX c #BEBEBE",
"oX c #BFBFBF",
"OX c #C0C0C0",
"+X c #C1C1C1",
"@X c #C2C2C2",
"#X c #C3C3C3",
"$X c #C4C4C4",
"%X c #C5C5C5",
"&X c #C6C6C6",
"*X c #C7C7C7",
"=X c #C8C8C8",
"-X c #C9C9C9",
";X c #CACACA",
":X c #CCCCCC",
">X c #CDCDCD",
",X c #CECECE",
"<X c #CFCFCF",
"1X c #D0D0D0",
"2X c #D1D1D1",
"3X c #D2D2D2",
"4X c #D3D3D3",
"5X c #D4D4D4",
"6X c #D5D5D5",
"7X c #D6D6D6",
"8X c #D7D7D7",
"9X c #D8D8D8",
"0X c #D9D9D9",
"qX c #DADADA",
"wX c #DBDBDB",
"eX c #DCDCDC",
"rX c #DDDDDD",
"tX c #DEDEDE",
"yX c #DFDFDF",
"uX c #E0E0E0",
"iX c #E1E1E1",
"pX c #E2E2E2",
"aX c #E3E3E3",
"sX c #E4E4E4",
"dX c #E5E5E5",
"fX c #E6E6E6",
"gX c #E7E7E7",
"hX c #E8E8E8",
"jX c #E9E9E9",
"kX c #EAEAEA",
"lX c #EBEBEB",
"zX c #ECECEC",
"xX c #EEEEEE",
"cX c #EFEFEF",
"vX c #F0F0F0",
"bX c #F1F1F1",
"nX c #F2F2F2",
"mX c #F3F3F3",
"MX c #F4F4F4",
"NX c #F5F5F5",
"BX c #F6F6F6",
"VX c #F7F7F7",
"CX c #F8F8F8",
"ZX c #F9F9F9",
"AX c #FAFAFA",
"SX c #FBFBFB",
"DX c #FCFCFC",
"FX c #FDFDFD",
"GX c #FEFEFE",
"HX c #FFFFFF",
/* pixels */
"                        .   . + HXX         | ]                                                                                             ",
"                # K.HXR.      ] ZXy - #     rXv                                                                                             ",
"                l 7XxX5X$ ;.NXH.T rX,.iXh.fXF.s.                                                                                            ",
"              .     Y.i.4XF.$   r ,     ) e r {.    .                                                                                       ",
"                    iX+ HX* .           : y.$X)   ).                                                                                        ",
"                .   .X9 # .             0.-X7X  XXsX/                                                                                       ",
"                r ,XtX  .       I k.u.A     b s.C @.SX:XR.  .                                                                               ",
"X.H +.I   :     2Xc   =   } XXiXK.( o.(.yX>.      W s   &.eX                                                                                ",
"/.HXO.OXmXGXV   MX  1XAXyXh.    .         Y.qX+   .     . :.o.S a                                                                           ",
"  d.CX2XQ.# HXMXfX  uX.Xe.[             .   v mXt       .   iXHX6                                                                           ",
".     ].=X:X@XoX4X  [ hX[ 2X      b t .       < <Xt.    * HXH.p                                                                             ",
"    .     a.XXBXV   E J.    .     s sX#           Z.B.    &.@X                                                                              ",
"          . sX|     fX#         .   J N.        .   Z.{     zXo .                                                                           ",
"          . aX    { >.  O.$Xi .     v &X          . X cXe   F 7X|                                                                           ",
"            J.&.  7Xy < HXhXqX      > fX              * yX    r aXQ                                                                         ",
"        5 d.NXHXq GX. f +X6XfXt   . b ;X              . 6Xz . . &Xy                                                   .   & y v 1 . .       ",
"        + B   1Xk lXL.  MXm.rX  .   7Xp                 W U.    0X4                                                     g bXf./ 0Xm         ",
"        .   @X:.tX& t.v.# ^ @ .   e.bXw.              .   yX&   1.qX'.N                                             . = HX#       kX        ",
"          1XY @XD     >X  .     . sXX 3X5               . B OX.   B AXu                                               i.F       . B.+.      ",
"          HXOX~ .     9.b       . rX4 8 NX                  [.$   w NX)                                               pX           .1.      ",
"          U.OX      . +.b     .   W.S   ^.V .               g !.    O HX                                            G ^.          M Z.      ",
"        .   h.        @.z       c.E A.  5 G.                . dXi   , dX  .                                         oXc           5.3.      ",
"              .       ~ 7.; O   VX, [.    yX                  ; @X  # $XHX                                          ;X            6Xp       ",
"                      P z.^ G.  zX;Xx.    #X7               .   '.I   0 B.                                        %.$.            hX        ",
"                      > VX  ' * HXoX=   . oX0                 . O 0Xi a ;..                 .                 . $ wX& .       .   L.        ",
"                        Z qXM >XN   .     wX                    . 5 dXtXW             ; 8 B ! h.+.K s 3     . , 3X8       .     ,.R         ",
"                          1 g.7 .         $X                      .   j.NX/.i.i.y.W.HX%X/.8.F   x e.g.jXBX&.  9Xg   d &Xx       bX4         ",
"                        .             .   Y.                            o 4 6 6 6 4 +                   & A SX2.& 8Xp.0 nX<   & qX          ",
"                                        ` |                                                             .   3 wXfXK     W.9   * oX          ",
"                                        *Xg                                                                 . ! -X      HX2 X * ;X          ",
"                                      # HX                                                                      VXO     b kX$X  HX      .   ",
"                                      < 3X                                                                      7X%   .     R.V e.z...i.    ",
"                                      w I.                                                                      V.:       . 4.x.  w.SX<     ",
"                                      e C.                                            +                         } 1         K.i     ].      ",
"                                      < kX                                            sXV .                      .1         ^ oX.   $X  .   ",
"                                        hXr                                         .   3X                      [ 1           p.7   c.z     ",
"                                        ( O.  .     .                                    X                      Z.>         . x H   # MXX . ",
"                                          zX-   u _                                     *X                      4X&           T 1     I R   ",
"                                        . d rXy.BXp                                 . b.%.                  . J L.             X. . . < oX  ",
"                                        f G a.lXN           p X                       pX                      P.d             bX.   . $ HX  ",
"                        .   Z HXFXFXFXFX7Xm.L               Z.@                   .   oX                      1X              jX.     D =X  ",
"                          y -XO @ @ @ @       .             [.                      P bX                    x.1.              cX.     $ eXh ",
"                          L.S .                             6XeX#.+         + G U.gXb.sXr                   4Xt               #X  .     1.K ",
"                          Q.v   Y #                       ; HXL S.iX+X&XOXaXfX_.l k.. r.>.                  dX                F <.  .   d.F ",
"                          Q.v   )  X8                 . n.HXW I   . X X X . .     k.o   3X  .               iX- .           .   u.U   @ DX; ",
"                          t./ .   cXq.Y.aX2XaXdX4XXXnX6.B & z I                   n.    8.:.  .             h DXv.X.  .       .   0X  q j.  ",
"                          9 A.    !.^     3         [ &.    x I                   B m.  O @XX.  .             : R s.C.            rX% { f   ",
"                            :X    X ,X              0 pX    x I                     uXn     +Xl.%           .       tX            1X4 X.3   ",
"                            '.l .   s.<.              HX&   c J                     # dXf   . R uXtXj.] L _         4X            D.( r ;X  ",
"                          . d 0X  .   6X0             *X9   a z.                    . = $Xx.      8 x ~ %.^.      $ Q.            J B.  j.W ",
"                              S. .  4.tX3X            y.a   c Y                       .   4.uXyX-       6.$X      ,XN .             5X  s 2.",
"                            .   vXT.P.o HX            4.g . u s.                              h.) .   ^ mXb.    1 sX              . G =X  j.",
"                                - oX  ).5.            k A   9 `.                            : wXX   % eXP :     ,.n                   iX  k.",
"                                o +XtX]   .         . o O.  - SX                        .   nXg .   kX7 S.X   : BX@ .                 s 4Xi.",
"                                . j   .               O l.  O HX%                     .   y.~     u.O.  iXX   :.*.                      ;X6.",
"                                    .                 o |.    2Xr                       ) %X  . a 4X. l :X    dX                        -.u.",
"                                                      . gX    s.B                       uX      5X*   6.6.  @ =X                        @ gX",
"                                                      . oXN   { !                     M.;.. . E /.    .Xr   `.| .                         xX",
"                                                        J.A   B ^               . . + qX      yX  .   >X    sX                          .   ",
"                                                        J.A     a.                L D.eX7X;XHX/     6 c.    E.                              ",
"                                                        H.A 1   s.                h eX .S.uX5X    2.uX1X'.XXu.                              ",
"                                                      o }.mXdXHX$.                  d } =.H %   q HX7 ; # < G.                              ",
"                                                      J $.    g.B .               .           .   S y.M.zX*Xy                               ",
"                                                      1 :X~.&X].+                               .                                           "
};
